<?xml version="1.0" standalone="no"?>
<!DOCTYPE svg PUBLIC "-//W3C//DTD SVG 20010904//EN"
 "http://www.w3.org/TR/2001/REC-SVG-20010904/DTD/svg10.dtd">
<svg version="1.0" xmlns="http://www.w3.org/2000/svg"
 width="1536.000000pt" height="1024.000000pt" viewBox="0 0 1536.000000 1024.000000"
 preserveAspectRatio="xMidYMid meet">

<g transform="translate(0.000000,1024.000000) scale(0.100000,-0.100000)"
fill="#000000" stroke="none">
<path d="M5935 6096 c-38 -16 -60 -57 -59 -107 3 -82 90 -128 165 -88 81 43
77 160 -6 195 -42 17 -61 17 -100 0z"/>
<path d="M7243 6103 c-28 -5 -73 -57 -74 -86 -4 -65 17 -102 68 -123 45 -19
85 -10 123 28 54 53 35 145 -37 174 -33 14 -40 15 -80 7z"/>
<path d="M5510 5568 l0 -523 92 2 93 1 3 521 2 521 -95 0 -95 0 0 -522z"/>
<path d="M8430 5545 l0 -506 93 3 92 3 3 153 3 152 52 1 c28 0 84 0 122 -1 95
-1 221 22 282 53 67 34 135 111 156 177 23 72 22 196 -2 260 -25 65 -73 124
-125 155 -78 45 -149 55 -423 55 l-253 0 0 -505z m543 312 c102 -60 120 -205
35 -284 -47 -44 -95 -56 -245 -61 l-143 -5 0 193 0 192 153 -4 c145 -3 154 -4
200 -31z"/>
<path d="M4935 5781 c-104 -26 -207 -107 -252 -200 -25 -51 -28 -66 -28 -166
0 -127 15 -180 72 -248 82 -97 198 -143 349 -135 79 4 104 10 159 37 57 28
135 99 135 122 0 5 -27 27 -60 49 l-61 41 -35 -30 c-55 -49 -93 -64 -159 -64
-130 0 -217 89 -218 223 -1 201 217 301 367 169 l43 -38 61 42 c34 23 62 46
62 51 0 6 -24 33 -54 62 -43 42 -68 57 -121 73 -69 22 -197 27 -260 12z"/>
<path d="M6590 5775 c-25 -8 -64 -30 -87 -50 -23 -19 -44 -35 -47 -35 -3 0 -6
20 -6 45 l0 45 -90 0 -90 0 0 -364 c0 -201 3 -366 8 -368 4 -2 46 -2 95 0 l87
3 0 215 c0 229 5 261 53 312 73 78 208 74 268 -8 30 -40 39 -119 39 -326 l0
-194 85 0 c47 0 88 0 91 0 3 0 5 111 5 248 -1 299 -8 330 -87 409 -38 38 -65
55 -104 67 -65 19 -159 20 -220 1z"/>
<path d="M7806 5779 c-70 -17 -155 -70 -196 -121 -60 -75 -83 -146 -83 -253 0
-124 26 -191 102 -266 83 -82 143 -103 291 -103 106 -1 120 1 175 27 57 27
126 83 146 118 7 14 -4 25 -56 59 l-65 42 -45 -40 c-83 -73 -185 -78 -280 -12
-122 84 -111 294 20 375 42 26 58 30 114 29 73 -1 111 -16 160 -64 l31 -31 60
42 c33 24 60 48 60 54 0 26 -66 87 -126 116 -58 29 -76 33 -167 35 -56 2 -119
-1 -141 -7z"/>
<path d="M9720 5781 c-46 -14 -93 -43 -121 -74 l-28 -30 -7 51 -7 52 -87 0
-88 0 1 -367 2 -368 93 -3 92 -3 0 196 c0 116 5 215 12 242 22 88 105 143 217
143 l41 0 0 85 0 85 -47 -1 c-27 0 -59 -4 -73 -8z"/>
<path d="M10165 5770 c-168 -56 -265 -206 -252 -390 10 -145 85 -258 212 -317
56 -26 69 -28 190 -28 122 0 134 2 193 29 192 89 266 338 160 539 -38 70 -92
121 -167 155 -77 36 -245 42 -336 12z m240 -149 c114 -53 164 -205 106 -323
-65 -136 -257 -160 -358 -45 -29 34 -63 117 -63 157 0 40 34 123 63 157 61 70
168 93 252 54z"/>
<path d="M5892 5414 l3 -366 90 0 90 0 3 294 c2 161 0 326 -3 366 l-7 72 -89
0 -89 0 2 -366z"/>
<path d="M7190 5416 l0 -365 90 -3 90 -3 0 368 0 367 -90 0 -90 0 0 -364z"/>
<path d="M6120 4674 c530 -260 1251 -393 1835 -339 22 2 72 6 110 10 278 25
717 133 980 242 111 45 305 136 302 140 -2 2 -40 -7 -83 -21 -220 -68 -649
-157 -869 -181 -33 -3 -89 -10 -125 -15 -130 -18 -311 -25 -625 -25 -326 1
-413 7 -740 50 -249 33 -539 93 -752 156 -157 46 -159 45 -33 -17z"/>
</g>
</svg>
